<svg id="canvas" width="832.915" height="257.013" viewBox="181.452 219.287 832.915 257.013" preserveAspectRatio="xMidYMid meet" class="h-full w-full max-w-4xl text-primary transition-opacity duration-300 opacity-100" xmlns="http://www.w3.org/2000/svg"><g id="canvas-strokes"><path d="M 289.75,232.13 C 290.00 230.78, 289.61 229.86, 288.64 228.50 C 287.67 227.14, 286.85 226.41, 284.92 225.33 C 282.99 224.25, 281.61 223.70, 278.99 223.10 C 276.37 222.49, 274.88 222.26, 271.81 222.29 C 268.74 222.32, 267.09 222.59, 263.63 223.23 C 260.18 223.87, 258.30 224.30, 254.54 225.49 C 250.79 226.68, 248.73 227.47, 244.86 229.19 C 240.98 230.91, 238.93 231.94, 235.17 234.09 C 231.41 236.23, 229.44 237.45, 226.08 239.93 C 222.72 242.41, 221.04 243.76, 218.39 246.48 C 215.74 249.19, 214.39 250.56, 212.81 253.53 C 211.22 256.50, 210.72 258.20, 210.47 261.32 C 210.22 264.45, 210.42 266.21, 211.56 269.16 C 212.69 272.10, 213.70 273.68, 216.14 276.05 C 218.58 278.43, 220.33 279.21, 223.75 281.03 C 227.17 282.85, 229.17 283.56, 233.23 285.17 C 237.30 286.78, 239.60 287.44, 244.07 289.08 C 248.55 290.72, 251.02 291.50, 255.61 293.36 C 260.20 295.22, 262.62 296.19, 267.02 298.39 C 271.42 300.58, 273.70 301.76, 277.61 304.32 C 281.51 306.88, 283.37 308.29, 286.54 311.19 C 289.71 314.09, 291.14 315.67, 293.46 318.81 C 295.78 321.94, 296.75 323.60, 298.14 326.86 C 299.52 330.11, 299.93 331.79, 300.39 335.08 C 300.84 338.37, 300.83 340.06, 300.41 343.30 C 299.98 346.54, 299.56 348.18, 298.27 351.28 C 296.97 354.37, 296.11 355.93, 293.92 358.77 C 291.74 361.61, 290.42 362.98, 287.34 365.48 C 284.26 367.99, 282.48 369.19, 278.52 371.28 C 274.56 373.37, 272.26 374.34, 267.53 375.94 C 262.81 377.54, 260.09 378.23, 254.91 379.29 C 249.72 380.35, 246.90 380.78, 241.60 381.24 C 236.30 381.69, 233.46 381.76, 228.40 381.57 C 223.35 381.38, 220.74 381.12, 216.31 380.28 C 211.87 379.45, 209.73 378.82, 206.24 377.40 C 202.75 375.98, 201.18 375.04, 198.86 373.19 C 196.54 371.34, 195.73 370.35, 194.63 368.13 C 193.52 365.91, 193.67 364.48, 193.34 362.07 C 193.02 359.66, 193.32 358.29, 192.98 356.06 C 192.64 353.83, 192.64 352.07, 191.66 350.92 C 190.69 349.77, 189.42 349.39, 188.09 350.31 C 186.75 351.24, 185.64 352.91, 185.00 355.56 C 184.36 358.20, 184.23 360.25, 184.88 363.52 C 185.53 366.80, 186.22 368.95, 188.24 371.94 C 190.26 374.94, 191.77 376.31, 194.96 378.50 C 198.15 380.70, 200.10 381.50, 204.19 382.90 C 208.28 384.31, 210.60 384.79, 215.42 385.52 C 220.23 386.25, 222.94 386.44, 228.26 386.55 C 233.58 386.67, 236.50 386.57, 242.02 386.10 C 247.54 385.62, 250.44 385.21, 255.87 384.18 C 261.30 383.15, 264.12 382.51, 269.16 380.94 C 274.20 379.37, 276.68 378.45, 281.07 376.32 C 285.46 374.19, 287.50 372.99, 291.09 370.29 C 294.68 367.59, 296.34 366.08, 299.01 362.81 C 301.68 359.54, 302.84 357.65, 304.46 353.92 C 306.08 350.19, 306.62 348.12, 307.11 344.15 C 307.59 340.18, 307.54 338.06, 306.89 334.09 C 306.24 330.12, 305.60 328.08, 303.85 324.31 C 302.09 320.54, 300.85 318.69, 298.13 315.23 C 295.41 311.78, 293.76 310.13, 290.23 307.05 C 286.71 303.98, 284.67 302.53, 280.50 299.85 C 276.34 297.18, 273.95 295.97, 269.39 293.67 C 264.83 291.37, 262.35 290.35, 257.71 288.34 C 253.08 286.34, 250.58 285.46, 246.22 283.62 C 241.86 281.78, 239.61 280.96, 235.89 279.13 C 232.17 277.31, 230.38 276.35, 227.62 274.50 C 224.86 272.66, 223.86 271.61, 222.10 269.91 C 220.35 268.22, 219.66 267.61, 218.85 266.02 C 218.04 264.44, 217.86 263.76, 218.05 262.00 C 218.23 260.24, 218.67 259.35, 219.78 257.21 C 220.90 255.07, 221.56 253.69, 223.62 251.29 C 225.68 248.89, 227.13 247.51, 230.08 245.21 C 233.03 242.90, 234.90 241.71, 238.38 239.76 C 241.86 237.81, 243.86 236.88, 247.48 235.47 C 251.10 234.05, 253.07 233.45, 256.50 232.69 C 259.94 231.92, 261.66 231.77, 264.65 231.64 C 267.63 231.50, 269.03 231.76, 271.41 232.01 C 273.79 232.26, 274.71 232.37, 276.55 232.88 C 278.38 233.38, 279.08 233.99, 280.59 234.53 C 282.09 235.07, 282.72 235.41, 284.08 235.55 C 285.44 235.70, 286.27 235.94, 287.41 235.26 C 288.54 234.57, 289.51 233.49, 289.75 232.13" style="stroke: black; fill: black;"/><path d="M 313.11,233.61 C 312.36 234.41, 312.40 234.68, 312.19 235.91 C 311.98 237.14, 311.68 237.73, 312.07 239.73 C 312.45 241.74, 313.25 242.86, 314.12 245.92 C 314.98 248.98, 315.68 250.86, 316.37 255.04 C 317.07 259.22, 317.26 261.71, 317.58 266.82 C 317.89 271.94, 317.91 274.81, 317.95 280.60 C 317.99 286.39, 317.90 289.57, 317.77 295.77 C 317.64 301.98, 317.52 305.34, 317.30 311.62 C 317.08 317.90, 316.92 321.14, 316.68 327.19 C 316.44 333.24, 316.30 336.35, 316.09 341.88 C 315.89 347.41, 315.82 350.22, 315.65 354.83 C 315.48 359.43, 314.99 361.57, 315.23 364.91 C 315.48 368.25, 315.67 369.75, 316.87 371.54 C 318.06 373.34, 319.30 373.90, 321.19 373.90 C 323.07 373.89, 324.68 373.35, 326.28 371.52 C 327.89 369.69, 328.22 368.06, 329.21 364.75 C 330.20 361.44, 330.15 359.12, 331.24 354.97 C 332.33 350.82, 333.01 348.40, 334.67 343.98 C 336.32 339.57, 337.36 337.17, 339.52 332.88 C 341.67 328.59, 342.95 326.39, 345.46 322.55 C 347.97 318.71, 349.38 316.81, 352.06 313.67 C 354.75 310.53, 356.24 309.04, 358.88 306.85 C 361.53 304.65, 363.05 303.94, 365.28 302.68 C 367.52 301.43, 368.45 300.99, 370.07 300.58 C 371.69 300.16, 372.27 300.12, 373.38 300.61 C 374.49 301.11, 374.71 301.59, 375.62 303.06 C 376.54 304.53, 376.97 305.48, 377.96 307.95 C 378.96 310.42, 379.77 311.96, 380.60 315.42 C 381.42 318.88, 381.72 321.06, 382.09 325.23 C 382.46 329.41, 382.48 331.85, 382.45 336.32 C 382.43 340.78, 382.24 343.23, 381.97 347.57 C 381.70 351.92, 381.43 354.16, 381.09 358.05 C 380.75 361.95, 380.28 363.83, 380.26 367.05 C 380.24 370.27, 380.40 371.85, 380.99 374.14 C 381.59 376.44, 382.27 377.29, 383.25 378.50 C 384.24 379.72, 385.01 379.92, 385.94 380.20 C 386.86 380.49, 387.42 380.34, 387.87 379.91 C 388.33 379.48, 388.13 378.56, 388.21 378.06 C 388.29 377.57, 388.18 377.84, 388.29 377.43 C 388.40 377.02, 388.73 376.94, 388.75 376.01 C 388.78 375.09, 388.54 374.63, 388.40 372.80 C 388.25 370.98, 388.16 369.78, 388.02 366.89 C 387.87 364.00, 387.66 362.15, 387.67 358.35 C 387.68 354.55, 387.89 352.28, 388.07 347.89 C 388.25 343.50, 388.45 341.02, 388.57 336.41 C 388.69 331.81, 388.78 329.33, 388.67 324.87 C 388.56 320.41, 388.51 318.12, 388.02 314.11 C 387.52 310.09, 387.38 308.06, 386.18 304.80 C 384.98 301.55, 384.09 300.00, 382.02 297.82 C 379.96 295.65, 378.52 294.83, 375.86 293.93 C 373.19 293.03, 371.61 292.90, 368.72 293.33 C 365.83 293.76, 364.26 294.33, 361.40 296.06 C 358.54 297.80, 357.21 299.22, 354.43 302.00 C 351.66 304.78, 350.23 306.45, 347.51 309.96 C 344.78 313.47, 343.39 315.48, 340.81 319.55 C 338.23 323.63, 336.92 325.91, 334.59 330.34 C 332.25 334.76, 331.16 337.23, 329.13 341.68 C 327.10 346.13, 326.19 348.57, 324.43 352.60 C 322.67 356.63, 321.45 358.69, 320.33 361.85 C 319.21 365.01, 318.80 366.47, 318.83 368.40 C 318.86 370.32, 319.82 371.14, 320.49 371.48 C 321.16 371.83, 321.85 371.55, 322.18 370.13 C 322.52 368.71, 322.40 367.48, 322.17 364.40 C 321.94 361.33, 321.33 359.24, 321.05 354.76 C 320.76 350.27, 320.74 347.45, 320.73 341.96 C 320.72 336.48, 320.82 333.37, 320.98 327.33 C 321.14 321.29, 321.30 318.06, 321.54 311.78 C 321.78 305.49, 321.93 302.13, 322.17 295.90 C 322.41 289.68, 322.56 286.50, 322.75 280.66 C 322.93 274.82, 323.02 271.93, 323.10 266.70 C 323.19 261.47, 323.17 258.96, 323.18 254.50 C 323.19 250.04, 323.40 247.92, 323.15 244.40 C 322.91 240.88, 322.79 239.20, 321.95 236.90 C 321.10 234.61, 320.12 233.93, 318.92 232.92 C 317.72 231.92, 317.11 231.73, 315.95 231.87 C 314.79 232.01, 313.86 232.80, 313.11 233.61" style="stroke: black; fill: black;"/><path d="M 412.34,312.88 C 411.43 313.47, 411.28 313.66, 410.80 314.83 C 410.31 315.99, 409.87 316.65, 409.91 318.69 C 409.94 320.74, 410.39 322.05, 410.97 325.05 C 411.56 328.04, 412.26 329.95, 412.83 333.67 C 413.40 337.38, 413.55 339.56, 413.81 343.61 C 414.07 347.65, 414.11 349.90, 414.14 353.90 C 414.16 357.89, 413.98 360.08, 413.94 363.60 C 413.90 367.11, 413.38 368.97, 413.93 371.46 C 414.48 373.95, 415.26 375.06, 416.69 376.04 C 418.12 377.01, 419.45 377.12, 421.07 376.33 C 422.69 375.54, 424.05 374.53, 424.80 372.10 C 425.55 369.67, 425.03 367.77, 424.82 364.19 C 424.62 360.61, 424.03 358.32, 423.75 354.20 C 423.47 350.08, 423.41 347.75, 423.42 343.57 C 423.42 339.39, 423.50 337.19, 423.77 333.31 C 424.05 329.43, 424.25 327.47, 424.79 324.18 C 425.33 320.89, 425.84 319.42, 426.47 316.84 C 427.11 314.27, 427.33 313.11, 427.97 311.31 C 428.60 309.51, 428.87 308.82, 429.64 307.86 C 430.42 306.89, 430.77 306.75, 431.85 306.49 C 432.93 306.22, 433.48 306.30, 435.04 306.53 C 436.61 306.75, 437.53 307.07, 439.68 307.59 C 441.83 308.12, 443.12 308.45, 445.79 309.15 C 448.47 309.84, 450.04 310.19, 453.06 311.06 C 456.08 311.93, 457.71 312.49, 460.89 313.49 C 464.06 314.49, 465.71 315.06, 468.92 316.08 C 472.14 317.10, 473.79 317.68, 476.96 318.59 C 480.12 319.50, 481.72 319.95, 484.75 320.64 C 487.77 321.33, 489.28 321.76, 492.09 322.04 C 494.90 322.32, 496.56 322.34, 498.78 322.04 C 501.00 321.73, 501.87 321.25, 503.19 320.51 C 504.51 319.78, 505.04 319.28, 505.39 318.37 C 505.74 317.46, 505.50 316.71, 504.96 315.96 C 504.41 315.21, 503.91 315.14, 502.68 314.62 C 501.45 314.11, 500.77 313.72, 498.82 313.39 C 496.87 313.07, 495.43 313.22, 492.94 313.00 C 490.44 312.79, 489.14 312.76, 486.36 312.32 C 483.59 311.88, 482.07 311.57, 479.07 310.81 C 476.06 310.05, 474.45 309.52, 471.34 308.52 C 468.23 307.51, 466.61 306.93, 463.52 305.79 C 460.42 304.66, 458.86 304.01, 455.87 302.82 C 452.88 301.64, 451.43 300.83, 448.57 299.86 C 445.70 298.90, 444.26 298.44, 441.53 298.02 C 438.81 297.59, 437.43 297.47, 434.92 297.75 C 432.41 298.03, 431.15 298.38, 428.99 299.42 C 426.84 300.46, 425.80 301.18, 424.14 302.95 C 422.48 304.73, 421.81 305.85, 420.69 308.28 C 419.57 310.70, 419.11 312.07, 418.52 315.09 C 417.92 318.10, 417.97 319.78, 417.71 323.35 C 417.44 326.91, 417.36 328.91, 417.17 332.92 C 416.99 336.94, 416.96 339.18, 416.78 343.42 C 416.60 347.67, 416.60 350.03, 416.28 354.16 C 415.96 358.30, 415.45 360.61, 415.17 364.09 C 414.89 367.57, 414.37 369.33, 414.87 371.57 C 415.37 373.81, 416.49 374.62, 417.67 375.30 C 418.85 375.97, 419.83 375.85, 420.75 374.94 C 421.67 374.04, 422.13 373.08, 422.28 370.77 C 422.43 368.45, 421.77 366.76, 421.51 363.36 C 421.25 359.95, 421.12 357.75, 420.98 353.75 C 420.83 349.75, 420.83 347.47, 420.79 343.35 C 420.75 339.23, 420.73 337.02, 420.79 333.14 C 420.85 329.26, 421.18 327.18, 421.10 323.95 C 421.01 320.73, 420.99 319.20, 420.36 317.03 C 419.72 314.87, 418.93 314.16, 417.93 313.13 C 416.92 312.11, 416.44 311.94, 415.32 311.89 C 414.21 311.84, 413.24 312.29, 412.34 312.88" style="stroke: black; fill: black;"/><path d="M 498.31,350.45 C 499.12 351.50, 499.95 351.80, 501.81 352.14 C 503.67 352.48, 504.97 352.71, 507.61 352.14 C 510.25 351.56, 511.92 350.63, 515.03 349.28 C 518.14 347.92, 519.87 346.94, 523.17 345.36 C 526.48 343.77, 528.28 342.94, 531.56 341.34 C 534.84 339.75, 536.55 338.97, 539.58 337.39 C 542.60 335.82, 544.23 335.24, 546.69 333.48 C 549.15 331.72, 550.25 330.68, 551.87 328.60 C 553.49 326.52, 554.18 325.38, 554.79 323.07 C 555.40 320.76, 555.51 319.39, 554.91 317.04 C 554.32 314.70, 553.67 313.31, 551.82 311.35 C 549.96 309.39, 548.59 308.29, 545.64 307.24 C 542.69 306.19, 540.79 306.14, 537.07 306.09 C 533.35 306.03, 531.29 306.23, 527.05 306.95 C 522.81 307.67, 520.46 308.19, 515.88 309.67 C 511.30 311.16, 508.78 312.10, 504.15 314.37 C 499.52 316.64, 497.04 318.09, 492.73 321.03 C 488.43 323.98, 486.25 325.66, 482.63 329.07 C 479.01 332.49, 477.26 334.38, 474.64 338.11 C 472.03 341.85, 470.90 343.85, 469.55 347.75 C 468.20 351.66, 467.77 353.79, 467.91 357.63 C 468.05 361.48, 468.54 363.58, 470.26 366.99 C 471.99 370.40, 473.42 372.09, 476.53 374.69 C 479.64 377.29, 481.66 378.35, 485.81 379.98 C 489.96 381.60, 492.39 382.12, 497.27 382.83 C 502.14 383.54, 504.87 383.61, 510.18 383.51 C 515.49 383.40, 518.38 383.08, 523.80 382.31 C 529.23 381.54, 532.11 380.93, 537.29 379.65 C 542.47 378.36, 545.07 377.55, 549.71 375.88 C 554.34 374.22, 556.57 373.24, 560.46 371.32 C 564.35 369.40, 566.11 368.35, 569.16 366.26 C 572.20 364.17, 573.71 363.07, 575.68 360.87 C 577.65 358.67, 578.23 357.23, 579.03 355.25 C 579.82 353.27, 579.74 352.35, 579.66 350.98 C 579.58 349.61, 579.32 349.01, 578.65 348.42 C 577.97 347.83, 577.08 347.85, 576.28 348.04 C 575.48 348.23, 575.39 348.66, 574.65 349.37 C 573.90 350.09, 573.58 350.38, 572.57 351.62 C 571.55 352.87, 571.08 353.76, 569.57 355.61 C 568.05 357.47, 567.37 358.77, 564.99 360.89 C 562.62 363.00, 561.12 364.17, 557.69 366.17 C 554.26 368.18, 552.17 369.21, 547.84 370.93 C 543.51 372.64, 540.99 373.48, 536.05 374.75 C 531.10 376.02, 528.29 376.61, 523.11 377.29 C 517.93 377.98, 515.13 378.22, 510.15 378.18 C 505.16 378.15, 502.59 377.93, 498.21 377.11 C 493.84 376.29, 491.71 375.61, 488.27 374.08 C 484.82 372.54, 483.35 371.51, 481.01 369.45 C 478.66 367.39, 477.80 366.21, 476.54 363.78 C 475.27 361.35, 474.88 360.10, 474.68 357.28 C 474.47 354.46, 474.56 352.87, 475.51 349.68 C 476.45 346.49, 477.23 344.67, 479.40 341.33 C 481.57 338.00, 483.11 336.16, 486.38 332.99 C 489.64 329.81, 491.70 328.17, 495.73 325.45 C 499.76 322.73, 502.15 321.37, 506.52 319.38 C 510.89 317.39, 513.31 316.59, 517.58 315.49 C 521.84 314.40, 524.09 314.10, 527.84 313.91 C 531.60 313.71, 533.44 314.01, 536.35 314.52 C 539.27 315.02, 540.43 315.75, 542.41 316.43 C 544.40 317.12, 545.12 317.36, 546.28 317.93 C 547.43 318.50, 547.80 318.70, 548.18 319.28 C 548.56 319.86, 548.61 320.06, 548.17 320.85 C 547.74 321.64, 547.32 322.12, 546.01 323.23 C 544.71 324.35, 543.72 324.95, 541.66 326.40 C 539.60 327.85, 538.41 328.88, 535.73 330.49 C 533.05 332.10, 531.40 332.97, 528.26 334.45 C 525.12 335.93, 523.30 336.72, 520.03 337.90 C 516.76 339.08, 514.95 339.56, 511.91 340.35 C 508.86 341.14, 507.16 341.09, 504.82 341.87 C 502.48 342.65, 501.63 343.26, 500.22 344.26 C 498.81 345.26, 498.14 345.63, 497.76 346.86 C 497.38 348.10, 497.50 349.39, 498.31 350.45" style="stroke: black; fill: black;"/><path d="M 582.83,312.55 C 582.56 313.57, 582.57 313.73, 582.66 314.59 C 582.75 315.46, 582.68 315.80, 583.27 316.85 C 583.87 317.90, 584.45 318.34, 585.62 319.85 C 586.78 321.37, 587.50 322.36, 589.11 324.42 C 590.72 326.49, 591.84 327.65, 593.68 330.18 C 595.52 332.72, 596.42 334.25, 598.30 337.11 C 600.19 339.97, 601.13 341.54, 603.10 344.50 C 605.07 347.45, 606.09 349.04, 608.14 351.89 C 610.20 354.74, 611.25 356.23, 613.38 358.76 C 615.50 361.30, 616.54 362.63, 618.77 364.58 C 621.01 366.54, 622.24 367.34, 624.55 368.54 C 626.85 369.74, 628.00 370.19, 630.29 370.58 C 632.59 370.98, 633.80 371.01, 636.04 370.53 C 638.27 370.04, 639.50 369.55, 641.46 368.17 C 643.41 366.78, 644.29 365.74, 645.81 363.61 C 647.33 361.48, 647.98 360.17, 649.06 357.50 C 650.14 354.83, 650.46 353.21, 651.23 350.25 C 651.99 347.28, 652.26 345.64, 652.88 342.68 C 653.49 339.73, 653.86 338.22, 654.30 335.46 C 654.74 332.70, 654.85 331.28, 655.06 328.88 C 655.28 326.49, 655.68 325.34, 655.39 323.48 C 655.09 321.62, 654.79 320.57, 653.57 319.59 C 652.34 318.60, 650.91 318.18, 649.27 318.55 C 647.62 318.92, 646.38 319.47, 645.35 321.44 C 644.32 323.41, 644.40 324.96, 644.12 328.40 C 643.84 331.85, 644.23 334.15, 643.94 338.68 C 643.65 343.20, 643.34 345.83, 642.68 351.03 C 642.02 356.22, 641.58 359.05, 640.66 364.67 C 639.75 370.28, 639.22 373.26, 638.10 379.09 C 636.99 384.92, 636.37 387.95, 635.10 393.82 C 633.82 399.69, 633.12 402.71, 631.72 408.44 C 630.31 414.18, 629.61 417.10, 628.08 422.48 C 626.55 427.86, 625.73 430.55, 624.08 435.35 C 622.43 440.16, 621.56 442.47, 619.83 446.49 C 618.11 450.51, 617.24 452.43, 615.47 455.45 C 613.70 458.47, 612.45 459.56, 610.97 461.60 C 609.50 463.65, 609.01 464.56, 608.09 465.69 C 607.18 466.83, 606.82 467.05, 606.38 467.28 C 605.94 467.52, 606.03 467.43, 605.89 466.87 C 605.75 466.31, 605.85 465.87, 605.68 464.48 C 605.50 463.10, 605.40 462.19, 605.01 459.96 C 604.63 457.73, 604.00 456.40, 603.77 453.34 C 603.54 450.28, 603.46 448.39, 603.86 444.66 C 604.26 440.94, 604.69 438.81, 605.76 434.70 C 606.83 430.59, 607.55 428.39, 609.20 424.11 C 610.86 419.83, 611.85 417.56, 614.04 413.30 C 616.22 409.05, 617.48 406.93, 620.12 402.83 C 622.76 398.72, 624.21 396.65, 627.22 392.78 C 630.23 388.91, 631.89 387.02, 635.18 383.48 C 638.47 379.94, 640.21 378.23, 643.67 375.08 C 647.13 371.93, 648.93 370.44, 652.47 367.75 C 656.01 365.06, 657.87 363.83, 661.37 361.63 C 664.88 359.42, 666.66 358.43, 670.01 356.72 C 673.36 355.01, 674.99 354.30, 678.12 353.08 C 681.26 351.87, 682.87 351.52, 685.69 350.66 C 688.51 349.79, 690.02 349.55, 692.22 348.78 C 694.42 348.01, 695.26 347.66, 696.69 346.80 C 698.11 345.95, 698.92 345.50, 699.36 344.50 C 699.80 343.50, 699.64 342.58, 698.87 341.79 C 698.10 341.01, 697.28 340.83, 695.50 340.58 C 693.73 340.33, 692.50 340.04, 689.99 340.55 C 687.48 341.05, 685.89 341.87, 682.95 343.10 C 680.00 344.33, 678.48 345.09, 675.28 346.70 C 672.08 348.31, 670.38 349.14, 666.95 351.14 C 663.53 353.14, 661.72 354.26, 658.14 356.70 C 654.56 359.15, 652.67 360.48, 649.06 363.37 C 645.44 366.26, 643.60 367.84, 640.05 371.16 C 636.51 374.47, 634.73 376.26, 631.35 379.94 C 627.96 383.63, 626.26 385.59, 623.13 389.59 C 620.01 393.60, 618.50 395.73, 615.72 399.97 C 612.94 404.21, 611.61 406.39, 609.25 410.78 C 606.88 415.18, 605.79 417.51, 603.89 421.94 C 601.99 426.37, 601.15 428.61, 599.73 432.92 C 598.31 437.22, 597.70 439.42, 596.79 443.47 C 595.88 447.52, 595.54 449.54, 595.17 453.16 C 594.80 456.78, 594.48 458.56, 594.94 461.57 C 595.39 464.57, 596.03 466.05, 597.44 468.19 C 598.85 470.33, 599.97 471.26, 601.98 472.26 C 603.99 473.27, 605.33 473.45, 607.49 473.20 C 609.64 472.95, 610.77 472.44, 612.76 471.01 C 614.76 469.59, 615.79 468.63, 617.48 466.08 C 619.16 463.54, 619.71 461.83, 621.20 458.30 C 622.69 454.78, 623.41 452.76, 624.92 448.47 C 626.42 444.18, 627.21 441.81, 628.72 436.86 C 630.23 431.90, 631.01 429.16, 632.46 423.68 C 633.91 418.20, 634.59 415.26, 635.97 409.47 C 637.35 403.68, 638.05 400.65, 639.36 394.75 C 640.66 388.85, 641.30 385.81, 642.51 379.97 C 643.72 374.12, 644.29 371.13, 645.41 365.53 C 646.53 359.92, 647.05 357.09, 648.11 351.93 C 649.17 346.77, 649.63 344.13, 650.72 339.72 C 651.81 335.32, 652.78 333.19, 653.56 329.89 C 654.35 326.60, 654.89 325.24, 654.63 323.23 C 654.37 321.23, 653.45 320.52, 652.26 319.87 C 651.07 319.22, 649.76 319.36, 648.67 319.99 C 647.58 320.62, 647.29 321.47, 646.81 323.03 C 646.33 324.60, 646.61 325.66, 646.28 327.82 C 645.94 329.98, 645.65 331.27, 645.15 333.84 C 644.65 336.40, 644.42 337.89, 643.76 340.64 C 643.09 343.39, 642.66 344.95, 641.84 347.58 C 641.01 350.21, 640.47 351.57, 639.63 353.79 C 638.79 356.02, 638.36 357.08, 637.63 358.70 C 636.90 360.31, 636.64 360.96, 635.96 361.88 C 635.28 362.81, 635.03 363.03, 634.22 363.32 C 633.41 363.60, 633.01 363.65, 631.91 363.29 C 630.81 362.94, 630.20 362.60, 628.73 361.54 C 627.25 360.49, 626.40 359.65, 624.54 358.01 C 622.69 356.37, 621.48 355.50, 619.44 353.36 C 617.41 351.22, 616.33 349.92, 614.35 347.31 C 612.37 344.69, 611.37 343.18, 609.54 340.30 C 607.72 337.43, 606.85 335.90, 605.23 332.94 C 603.60 329.98, 602.86 328.40, 601.42 325.51 C 599.98 322.61, 599.46 320.99, 598.01 318.47 C 596.56 315.95, 595.70 314.75, 594.16 312.92 C 592.62 311.09, 591.81 310.25, 590.29 309.33 C 588.76 308.41, 587.79 308.29, 586.54 308.32 C 585.28 308.35, 584.75 308.62, 584.00 309.47 C 583.26 310.31, 583.09 311.52, 582.83 312.55" style="stroke: black; fill: black;"/><path d="M 746.30,326.84 C 747.50 326.25, 747.92 325.52, 748.38 324.20 C 748.85 322.88, 748.93 321.96, 748.61 320.24 C 748.29 318.52, 747.82 317.38, 746.79 315.59 C 745.76 313.81, 745.00 312.94, 743.46 311.32 C 741.92 309.71, 741.11 308.86, 739.10 307.50 C 737.08 306.14, 735.90 305.45, 733.37 304.55 C 730.84 303.64, 729.41 303.25, 726.44 302.99 C 723.48 302.72, 721.81 302.66, 718.54 303.21 C 715.28 303.77, 713.49 304.32, 710.12 305.74 C 706.75 307.16, 705.00 308.12, 701.69 310.33 C 698.39 312.55, 696.68 313.92, 693.61 316.81 C 690.54 319.69, 688.94 321.35, 686.35 324.75 C 683.77 328.14, 682.52 330.09, 680.70 333.78 C 678.87 337.47, 678.10 339.47, 677.23 343.20 C 676.36 346.94, 676.07 348.89, 676.36 352.46 C 676.65 356.02, 677.12 358.00, 678.69 361.01 C 680.26 364.03, 681.54 365.49, 684.22 367.54 C 686.90 369.58, 688.68 370.45, 692.08 371.24 C 695.47 372.02, 697.52 371.98, 701.20 371.46 C 704.88 370.95, 706.83 370.24, 710.47 368.67 C 714.11 367.09, 716.00 365.97, 719.41 363.58 C 722.82 361.20, 724.52 359.73, 727.53 356.74 C 730.54 353.75, 731.98 352.03, 734.45 348.65 C 736.92 345.27, 738.04 343.39, 739.88 339.84 C 741.71 336.29, 742.44 334.34, 743.63 330.91 C 744.81 327.49, 745.45 325.70, 745.80 322.71 C 746.15 319.73, 746.04 318.15, 745.38 316.00 C 744.72 313.85, 744.02 312.82, 742.51 311.95 C 740.99 311.09, 739.54 310.98, 737.80 311.68 C 736.06 312.37, 734.83 313.31, 733.81 315.44 C 732.78 317.56, 732.52 319.24, 732.67 322.30 C 732.83 325.35, 733.82 327.19, 734.58 330.70 C 735.34 334.21, 735.67 336.23, 736.48 339.86 C 737.29 343.49, 737.70 345.41, 738.61 348.84 C 739.53 352.27, 739.90 354.02, 741.06 357.01 C 742.21 359.99, 742.85 361.44, 744.39 363.77 C 745.94 366.10, 746.86 367.16, 748.79 368.66 C 750.72 370.16, 751.85 370.76, 754.05 371.26 C 756.26 371.77, 757.58 371.78, 759.82 371.18 C 762.06 370.57, 763.33 369.92, 765.25 368.25 C 767.17 366.58, 768.07 365.34, 769.43 362.82 C 770.79 360.30, 771.23 358.70, 772.06 355.64 C 772.90 352.58, 773.05 350.82, 773.61 347.51 C 774.17 344.21, 774.38 342.40, 774.87 339.13 C 775.36 335.86, 775.61 334.20, 776.06 331.17 C 776.51 328.13, 776.87 326.56, 777.12 323.98 C 777.37 321.39, 777.61 319.96, 777.30 318.22 C 777.00 316.49, 776.49 315.80, 775.59 315.30 C 774.70 314.80, 773.73 314.89, 772.80 315.71 C 771.88 316.54, 771.21 317.40, 770.96 319.41 C 770.71 321.42, 771.06 322.88, 771.55 325.76 C 772.05 328.65, 772.86 330.51, 773.44 333.85 C 774.03 337.18, 774.16 339.13, 774.46 342.43 C 774.76 345.73, 774.55 347.50, 774.94 350.35 C 775.34 353.20, 775.56 354.64, 776.42 356.69 C 777.28 358.74, 777.80 359.67, 779.26 360.60 C 780.71 361.53, 781.95 361.72, 783.69 361.34 C 785.44 360.96, 786.63 360.37, 788.00 358.71 C 789.37 357.05, 789.97 355.78, 790.55 353.05 C 791.13 350.31, 790.56 348.39, 790.92 345.03 C 791.27 341.67, 791.54 339.72, 792.34 336.24 C 793.14 332.75, 793.69 330.88, 794.92 327.60 C 796.15 324.32, 796.91 322.66, 798.49 319.83 C 800.07 317.01, 800.99 315.67, 802.80 313.48 C 804.62 311.29, 805.70 310.41, 807.54 308.88 C 809.39 307.36, 810.25 306.68, 812.03 305.85 C 813.81 305.02, 814.72 304.83, 816.44 304.73 C 818.17 304.64, 819.02 304.76, 820.65 305.38 C 822.28 306.00, 823.02 306.49, 824.59 307.84 C 826.15 309.18, 827.00 309.95, 828.49 312.08 C 829.98 314.22, 830.85 315.56, 832.05 318.50 C 833.25 321.45, 833.76 323.28, 834.48 326.82 C 835.20 330.37, 835.39 332.45, 835.66 336.23 C 835.92 340.02, 835.88 342.10, 835.82 345.74 C 835.76 349.38, 835.42 351.22, 835.35 354.44 C 835.28 357.67, 835.06 359.24, 835.47 361.87 C 835.87 364.51, 836.18 365.69, 837.37 367.61 C 838.57 369.54, 839.43 370.58, 841.44 371.51 C 843.46 372.44, 845.28 372.64, 847.45 372.25 C 849.62 371.86, 851.19 371.07, 852.31 369.56 C 853.44 368.04, 853.58 366.25, 853.07 364.68 C 852.55 363.10, 851.21 362.18, 849.72 361.68 C 848.24 361.18, 846.82 361.62, 845.64 362.19 C 844.46 362.75, 844.27 363.68, 843.83 364.51 C 843.40 365.34, 843.49 366.21, 843.45 366.34 C 843.41 366.47, 843.60 366.21, 843.62 365.16 C 843.65 364.11, 843.64 363.22, 843.57 361.06 C 843.50 358.91, 843.38 357.46, 843.26 354.38 C 843.14 351.31, 843.10 349.40, 842.97 345.67 C 842.84 341.94, 842.88 339.77, 842.60 335.75 C 842.32 331.72, 842.21 329.52, 841.58 325.54 C 840.94 321.57, 840.59 319.50, 839.43 315.86 C 838.27 312.22, 837.61 310.34, 835.78 307.35 C 833.95 304.37, 832.77 302.94, 830.28 300.94 C 827.80 298.93, 826.23 298.22, 823.36 297.33 C 820.50 296.44, 818.89 296.29, 815.95 296.47 C 813.02 296.66, 811.46 297.06, 808.68 298.25 C 805.89 299.43, 804.44 300.29, 802.03 302.38 C 799.61 304.48, 798.59 305.92, 796.59 308.71 C 794.58 311.50, 793.68 313.08, 791.98 316.33 C 790.29 319.58, 789.53 321.41, 788.11 324.96 C 786.69 328.52, 786.10 330.51, 784.88 334.12 C 783.67 337.73, 783.17 339.72, 782.03 343.02 C 780.88 346.33, 779.69 348.00, 779.14 350.65 C 778.59 353.29, 778.84 354.62, 779.28 356.25 C 779.72 357.89, 780.47 358.39, 781.35 358.83 C 782.23 359.26, 783.04 359.18, 783.67 358.43 C 784.29 357.67, 784.41 356.91, 784.48 355.06 C 784.55 353.21, 784.35 351.87, 784.03 349.18 C 783.72 346.49, 783.21 344.86, 782.89 341.62 C 782.56 338.38, 782.46 336.44, 782.40 333.00 C 782.34 329.55, 782.83 327.52, 782.58 324.40 C 782.34 321.28, 782.24 319.59, 781.16 317.41 C 780.09 315.23, 778.97 314.31, 777.23 313.50 C 775.49 312.70, 774.09 312.69, 772.46 313.37 C 770.84 314.05, 769.99 314.97, 769.10 316.89 C 768.20 318.81, 768.29 320.35, 767.97 322.99 C 767.66 325.64, 767.80 327.16, 767.52 330.13 C 767.24 333.10, 767.07 334.73, 766.57 337.85 C 766.07 340.96, 765.79 342.73, 765.03 345.70 C 764.26 348.67, 763.66 350.18, 762.74 352.70 C 761.82 355.23, 761.24 356.43, 760.41 358.34 C 759.57 360.25, 759.20 361.05, 758.56 362.24 C 757.91 363.42, 757.72 363.80, 757.18 364.26 C 756.64 364.72, 756.51 364.79, 755.86 364.53 C 755.21 364.27, 754.81 363.98, 753.94 362.95 C 753.06 361.91, 752.50 361.18, 751.47 359.37 C 750.44 357.56, 749.87 356.41, 748.80 353.88 C 747.73 351.36, 747.03 349.84, 746.13 346.74 C 745.23 343.65, 744.80 341.81, 744.28 338.39 C 743.76 334.98, 743.56 332.97, 743.55 329.67 C 743.53 326.37, 744.24 324.53, 744.19 321.90 C 744.15 319.27, 743.94 318.07, 743.33 316.51 C 742.72 314.95, 742.05 314.56, 741.15 314.09 C 740.25 313.62, 739.51 313.64, 738.82 314.16 C 738.14 314.69, 738.05 315.19, 737.73 316.70 C 737.41 318.22, 737.48 319.32, 737.22 321.74 C 736.96 324.16, 737.12 325.79, 736.42 328.81 C 735.73 331.83, 735.20 333.64, 733.73 336.83 C 732.27 340.03, 731.28 341.76, 729.11 344.79 C 726.94 347.82, 725.60 349.38, 722.88 351.98 C 720.17 354.59, 718.57 355.86, 715.53 357.82 C 712.49 359.77, 710.73 360.62, 707.68 361.75 C 704.63 362.88, 703.00 363.22, 700.27 363.45 C 697.53 363.68, 696.22 363.42, 694.00 362.91 C 691.78 362.41, 690.78 362.05, 689.16 360.90 C 687.55 359.75, 686.95 359.01, 685.92 357.16 C 684.89 355.31, 684.38 354.15, 684.03 351.65 C 683.69 349.16, 683.65 347.66, 684.21 344.68 C 684.76 341.69, 685.30 339.89, 686.79 336.72 C 688.28 333.55, 689.37 331.77, 691.66 328.81 C 693.94 325.84, 695.44 324.34, 698.23 321.89 C 701.03 319.45, 702.67 318.28, 705.61 316.58 C 708.55 314.89, 710.11 314.25, 712.94 313.40 C 715.76 312.55, 717.20 312.53, 719.71 312.34 C 722.23 312.15, 723.40 312.22, 725.50 312.45 C 727.61 312.69, 728.53 312.95, 730.23 313.53 C 731.92 314.10, 732.69 314.53, 733.96 315.33 C 735.23 316.13, 735.81 316.57, 736.57 317.52 C 737.34 318.46, 737.40 318.98, 737.79 320.06 C 738.18 321.14, 738.11 321.85, 738.53 322.92 C 738.95 323.98, 739.14 324.53, 739.90 325.39 C 740.67 326.24, 741.08 326.89, 742.36 327.18 C 743.64 327.47, 745.09 327.44, 746.30 326.84" style="stroke: black; fill: black;"/><path d="M 905.20,309.64 C 906.11 308.51, 906.26 307.23, 905.94 305.44 C 905.62 303.65, 905.06 302.47, 903.58 300.67 C 902.10 298.87, 900.88 297.74, 898.53 296.42 C 896.17 295.10, 894.68 294.69, 891.82 294.07 C 888.97 293.46, 887.38 293.27, 884.26 293.34 C 881.14 293.41, 879.42 293.74, 876.22 294.43 C 873.02 295.12, 871.27 295.58, 868.27 296.80 C 865.28 298.01, 863.70 298.74, 861.26 300.49 C 858.81 302.24, 857.63 303.29, 856.06 305.54 C 854.48 307.80, 853.79 309.15, 853.39 311.76 C 852.98 314.37, 853.08 315.96, 854.03 318.58 C 854.97 321.20, 855.80 322.73, 858.10 324.88 C 860.40 327.02, 862.18 327.62, 865.51 329.30 C 868.83 330.99, 870.86 331.65, 874.74 333.29 C 878.62 334.93, 880.87 335.76, 884.90 337.50 C 888.93 339.24, 891.19 340.14, 894.91 342.01 C 898.63 343.87, 900.57 344.87, 903.49 346.83 C 906.41 348.80, 907.61 350.10, 909.50 351.84 C 911.38 353.58, 912.09 354.22, 912.92 355.53 C 913.74 356.85, 913.84 357.34, 913.62 358.40 C 913.40 359.47, 912.99 359.82, 911.79 360.87 C 910.60 361.92, 909.68 362.33, 907.64 363.65 C 905.60 364.96, 904.45 366.04, 901.61 367.44 C 898.77 368.84, 896.94 369.59, 893.44 370.64 C 889.93 371.69, 887.81 372.14, 884.08 372.69 C 880.35 373.25, 878.29 373.41, 874.79 373.42 C 871.29 373.42, 869.48 373.23, 866.57 372.72 C 863.65 372.22, 862.29 371.52, 860.20 370.89 C 858.12 370.26, 857.18 370.22, 856.13 369.56 C 855.07 368.90, 855.24 368.49, 854.93 367.61 C 854.63 366.73, 854.98 366.13, 854.61 365.17 C 854.24 364.20, 854.08 363.36, 853.09 362.78 C 852.09 362.19, 850.79 361.73, 849.62 362.23 C 848.45 362.74, 847.57 363.65, 847.25 365.30 C 846.93 366.96, 847.12 368.52, 848.02 370.51 C 848.91 372.50, 849.84 373.62, 851.74 375.24 C 853.65 376.87, 854.79 377.63, 857.55 378.66 C 860.31 379.68, 862.05 380.00, 865.53 380.36 C 869.01 380.73, 871.04 380.63, 874.94 380.47 C 878.85 380.32, 880.98 380.14, 885.05 379.59 C 889.13 379.05, 891.37 378.67, 895.31 377.76 C 899.25 376.85, 901.26 376.30, 904.77 375.06 C 908.28 373.83, 910.15 373.39, 912.87 371.57 C 915.58 369.75, 916.82 368.43, 918.36 365.95 C 919.89 363.47, 920.36 361.89, 920.55 359.16 C 920.74 356.43, 920.46 354.92, 919.30 352.31 C 918.15 349.70, 917.22 348.36, 914.77 346.11 C 912.32 343.86, 910.48 343.02, 907.07 341.06 C 903.66 339.10, 901.61 338.21, 897.71 336.32 C 893.81 334.43, 891.54 333.52, 887.55 331.63 C 883.56 329.75, 881.34 328.80, 877.76 326.90 C 874.18 325.01, 872.34 323.96, 869.65 322.16 C 866.95 320.35, 865.99 319.26, 864.29 317.87 C 862.59 316.48, 861.89 316.18, 861.13 315.22 C 860.38 314.25, 860.29 313.95, 860.52 313.05 C 860.75 312.15, 861.16 311.71, 862.29 310.71 C 863.41 309.72, 864.28 309.10, 866.15 308.06 C 868.03 307.01, 869.26 306.37, 871.65 305.50 C 874.03 304.62, 875.51 304.16, 878.08 303.69 C 880.65 303.23, 882.12 303.22, 884.49 303.17 C 886.86 303.12, 888.10 303.09, 889.93 303.43 C 891.76 303.76, 892.39 304.06, 893.64 304.83 C 894.88 305.60, 895.21 306.36, 896.16 307.29 C 897.11 308.21, 897.36 308.71, 898.40 309.47 C 899.44 310.23, 900.01 311.06, 901.36 311.10 C 902.72 311.13, 904.28 310.77, 905.20 309.64" style="stroke: black; fill: black;"/><path d="M 933.18,250.65 C 932.59 251.36, 932.61 251.08, 932.21 251.74 C 931.81 252.40, 931.34 252.52, 931.19 253.95 C 931.04 255.38, 930.99 256.32, 931.47 258.89 C 931.95 261.46, 932.98 263.13, 933.58 266.81 C 934.18 270.48, 934.27 272.74, 934.47 277.26 C 934.68 281.78, 934.62 284.32, 934.59 289.41 C 934.56 294.49, 934.47 297.28, 934.31 302.68 C 934.15 308.08, 934.00 310.95, 933.81 316.41 C 933.61 321.88, 933.48 324.76, 933.33 330.02 C 933.17 335.27, 933.13 337.99, 933.03 342.70 C 932.93 347.42, 932.86 349.69, 932.81 353.59 C 932.76 357.49, 932.26 359.38, 932.79 362.19 C 933.32 365.00, 934.03 366.20, 935.48 367.62 C 936.93 369.05, 938.12 369.40, 940.05 369.29 C 941.98 369.19, 943.40 368.70, 945.12 367.08 C 946.83 365.47, 947.53 364.07, 948.64 361.20 C 949.74 358.33, 949.60 356.25, 950.65 352.72 C 951.70 349.19, 952.38 347.18, 953.91 343.55 C 955.44 339.92, 956.36 338.00, 958.29 334.56 C 960.22 331.12, 961.35 329.38, 963.57 326.37 C 965.79 323.35, 967.04 321.89, 969.39 319.49 C 971.75 317.09, 973.02 316.03, 975.33 314.38 C 977.64 312.73, 978.86 312.18, 980.92 311.24 C 982.98 310.29, 983.92 309.91, 985.63 309.66 C 987.34 309.40, 988.07 309.46, 989.46 309.95 C 990.85 310.43, 991.44 310.83, 992.57 312.09 C 993.71 313.35, 994.07 314.16, 995.14 316.25 C 996.22 318.34, 997.01 319.55, 997.95 322.53 C 998.89 325.51, 999.31 327.40, 999.87 331.16 C 1000.42 334.92, 1000.52 337.19, 1000.71 341.35 C 1000.90 345.50, 1000.84 347.77, 1000.81 351.95 C 1000.79 356.14, 1000.65 358.31, 1000.59 362.27 C 1000.53 366.23, 1000.43 368.22, 1000.50 371.75 C 1000.57 375.28, 1000.42 377.00, 1000.95 379.91 C 1001.48 382.81, 1002.05 384.26, 1003.15 386.26 C 1004.25 388.27, 1005.19 389.05, 1006.46 389.94 C 1007.73 390.82, 1008.55 390.91, 1009.50 390.70 C 1010.45 390.50, 1010.91 389.73, 1011.23 388.91 C 1011.54 388.09, 1011.25 387.72, 1011.07 386.61 C 1010.90 385.49, 1010.73 384.99, 1010.34 383.33 C 1009.94 381.67, 1009.63 380.72, 1009.11 378.30 C 1008.60 375.89, 1008.15 374.47, 1007.76 371.26 C 1007.38 368.04, 1007.30 366.08, 1007.19 362.23 C 1007.07 358.37, 1007.17 356.20, 1007.19 351.98 C 1007.20 347.77, 1007.31 345.48, 1007.27 341.16 C 1007.22 336.84, 1007.25 334.51, 1006.95 330.39 C 1006.65 326.28, 1006.48 324.24, 1005.76 320.57 C 1005.04 316.90, 1004.83 315.00, 1003.35 312.07 C 1001.87 309.13, 1000.63 307.83, 998.34 305.90 C 996.05 303.97, 994.61 303.24, 991.89 302.40 C 989.17 301.57, 987.63 301.46, 984.74 301.72 C 981.85 301.98, 980.25 302.38, 977.43 303.70 C 974.60 305.01, 973.24 306.11, 970.60 308.32 C 967.96 310.52, 966.73 311.89, 964.24 314.73 C 961.76 317.56, 960.52 319.18, 958.19 322.49 C 955.85 325.79, 954.70 327.65, 952.57 331.26 C 950.44 334.87, 949.46 336.87, 947.54 340.54 C 945.61 344.20, 944.71 346.22, 942.95 349.58 C 941.20 352.93, 939.85 354.59, 938.75 357.31 C 937.66 360.04, 937.47 361.44, 937.47 363.20 C 937.47 364.96, 938.20 365.66, 938.75 366.12 C 939.30 366.58, 939.86 366.50, 940.22 365.49 C 940.58 364.48, 940.76 363.53, 940.55 361.09 C 940.33 358.65, 939.58 356.96, 939.16 353.28 C 938.74 349.60, 938.62 347.30, 938.45 342.66 C 938.28 338.03, 938.27 335.33, 938.32 330.11 C 938.37 324.90, 938.48 322.04, 938.69 316.59 C 938.89 311.15, 939.06 308.28, 939.34 302.88 C 939.61 297.48, 939.76 294.70, 940.06 289.59 C 940.37 284.48, 940.53 281.95, 940.85 277.34 C 941.16 272.73, 941.31 270.48, 941.64 266.53 C 941.98 262.58, 942.70 260.58, 942.54 257.60 C 942.37 254.63, 941.73 253.46, 940.81 251.67 C 939.90 249.87, 939.10 249.31, 937.98 248.62 C 936.85 247.93, 936.13 247.81, 935.17 248.22 C 934.22 248.62, 933.77 249.95, 933.18 250.65" style="stroke: black; fill: black;"/></g></svg>